<svg width="42" height="16" viewBox="0 0 42 16" fill="none" xmlns="http://www.w3.org/2000/svg">
<g clip-path="url(#clip0_146_10401)">
<path d="M2.98539 0.2229H0V3.20829H2.98539V0.2229Z" fill="#04C7FD"/>
<path d="M2.90806 15.7769V5.02523H0.0820312V15.7769H2.90806ZM21.6916 15.8831V13.2483C21.2773 13.2483 20.9267 13.2271 20.6717 13.1846C20.3742 13.1421 20.1511 13.0359 20.0023 12.8871C19.8536 12.7384 19.758 12.5259 19.7049 12.2497C19.6624 11.9841 19.6411 11.6335 19.6411 11.2085V7.44754H21.6916V5.02523H19.6411V0.828685H16.8045V11.2297C16.8045 12.1116 16.8788 12.8552 17.0276 13.4502C17.1763 14.0345 17.4313 14.5126 17.7819 14.8738C18.1325 15.2351 18.6 15.49 19.163 15.6494C19.7367 15.8088 20.4592 15.8831 21.3197 15.8831H21.6916ZM37.9253 15.7769V0H35.0887V15.7769H37.9253ZM14.0741 6.07702C13.2879 5.22709 12.183 4.80212 10.7806 4.80212C10.1006 4.80212 9.48442 4.94024 8.92134 5.21647C8.36888 5.4927 7.8908 5.87517 7.51895 6.36388L7.35959 6.56574V6.38513V5.02523H4.56543V15.7769H7.38084V10.0505V10.4436C7.38084 10.3798 7.38084 10.3161 7.38084 10.2523C7.41271 9.24303 7.65706 8.49934 8.12453 8.02125C8.62386 7.51129 9.22944 7.25631 9.92001 7.25631C10.7381 7.25631 11.3649 7.51129 11.7792 8C12.183 8.48871 12.3954 9.17928 12.3954 10.0611V10.0823V15.7663H15.2533V9.66799C15.264 8.13811 14.8603 6.92696 14.0741 6.07702ZM33.6225 10.3798C33.6225 9.60425 33.4844 8.88181 33.2188 8.20186C32.9426 7.53254 32.5601 6.93758 32.082 6.42762C31.5933 5.91766 31.009 5.52457 30.329 5.23772C29.6491 4.95086 28.8948 4.81275 28.0767 4.81275C27.3012 4.81275 26.5681 4.96149 25.8881 5.24834C25.2082 5.54582 24.6132 5.93891 24.1139 6.43825C23.6146 6.93758 23.2108 7.53254 22.924 8.21248C22.6265 8.89243 22.4884 9.6255 22.4884 10.4011C22.4884 11.1766 22.6265 11.9097 22.9028 12.5896C23.179 13.2696 23.5721 13.8645 24.0608 14.3639C24.5495 14.8632 25.1551 15.2669 25.8563 15.5538C26.5575 15.8513 27.333 16 28.1617 16C30.5628 16 32.0502 14.9057 32.9426 13.8858L30.9028 12.3347C30.4778 12.8446 29.4579 13.5352 28.183 13.5352C27.3861 13.5352 26.7274 13.3546 26.2281 12.9827C25.7288 12.6215 25.3888 12.1116 25.2082 11.4847L25.1763 11.3891H33.6225V10.3798ZM25.1976 9.39177C25.1976 8.60558 26.1006 7.23506 28.0448 7.22444C29.9891 7.22444 30.9028 8.59495 30.9028 9.38114L25.1976 9.39177Z" fill="#0068B5"/>
<path d="M41.1555 14.3748C41.1024 14.2473 41.0281 14.141 40.9324 14.0454C40.8368 13.9498 40.7306 13.8754 40.6031 13.8223C40.4756 13.7692 40.3375 13.7373 40.1994 13.7373C40.0506 13.7373 39.9231 13.7692 39.7957 13.8223C39.6682 13.8754 39.5619 13.9498 39.4663 14.0454C39.3707 14.141 39.2963 14.2473 39.2432 14.3748C39.1901 14.5022 39.1582 14.6404 39.1582 14.7785C39.1582 14.9272 39.1901 15.0547 39.2432 15.1822C39.2963 15.3097 39.3707 15.4159 39.4663 15.5115C39.5619 15.6072 39.6682 15.6815 39.7957 15.7346C39.9231 15.7878 40.0613 15.8196 40.1994 15.8196C40.3481 15.8196 40.4756 15.7878 40.6031 15.7346C40.7306 15.6815 40.8368 15.6072 40.9324 15.5115C41.0281 15.4159 41.1024 15.3097 41.1555 15.1822C41.2087 15.0547 41.2405 14.9166 41.2405 14.7785C41.2405 14.6404 41.2087 14.5022 41.1555 14.3748ZM40.9856 15.1184C40.9431 15.2247 40.8793 15.3203 40.8049 15.3947C40.7306 15.469 40.635 15.5328 40.5287 15.5753C40.4225 15.6178 40.3162 15.639 40.1887 15.639C40.0719 15.639 39.955 15.6178 39.8488 15.5753C39.7425 15.5328 39.6469 15.469 39.5725 15.3947C39.4982 15.3203 39.4344 15.2247 39.3919 15.1184C39.3494 15.0122 39.3282 14.906 39.3282 14.7785C39.3282 14.6616 39.3494 14.5447 39.3919 14.4385C39.4344 14.3323 39.4982 14.2366 39.5725 14.1623C39.6469 14.0879 39.7425 14.0242 39.8488 13.9817C39.955 13.9392 40.0613 13.9179 40.1887 13.9179C40.3056 13.9179 40.4225 13.9392 40.5287 13.9817C40.635 14.0242 40.7306 14.0879 40.8049 14.1623C40.8793 14.2366 40.9431 14.3323 40.9856 14.4385C41.0281 14.5447 41.0493 14.651 41.0493 14.7785C41.0599 14.906 41.0281 15.0122 40.9856 15.1184ZM40.3906 14.8635C40.4756 14.8528 40.5393 14.821 40.5925 14.7678C40.6456 14.7147 40.6775 14.6404 40.6775 14.5341C40.6775 14.4173 40.6456 14.3323 40.5712 14.2685C40.5075 14.2048 40.3906 14.1729 40.2525 14.1729H39.785V15.3734H40.0081V14.8847H40.1675L40.465 15.3734H40.6987L40.3906 14.8635ZM40.2737 14.6935C40.2419 14.6935 40.21 14.6935 40.1675 14.6935H40.0081V14.3535H40.1675C40.1994 14.3535 40.2312 14.3535 40.2737 14.3535C40.3056 14.3535 40.3375 14.3641 40.3694 14.3748C40.4012 14.3854 40.4225 14.4066 40.4331 14.4279C40.4437 14.4491 40.4543 14.481 40.4543 14.5235C40.4543 14.566 40.4437 14.5979 40.4331 14.6191C40.4119 14.6404 40.3906 14.6616 40.3694 14.6722C40.3375 14.6829 40.3056 14.6935 40.2737 14.6935Z" fill="#0068B5"/>
</g>
<defs>
<clipPath id="clip0_146_10401">
<rect width="41.243" height="16" fill="white"/>
</clipPath>
</defs>
</svg>
