<svg width="30" height="20" viewBox="0 0 30 20" fill="none" xmlns="http://www.w3.org/2000/svg">
<g clip-path="url(#clip0_79_1829)">
<path d="M8.83878 8.48327V13.3809H7.29663V7.22482L10.4804 7.22801C11.8327 7.22801 12.2933 8.19207 12.2933 9.06776V13.3809H10.754V9.07583C10.754 8.709 10.5662 8.48328 10.1131 8.48328L8.83878 8.48327ZM19.3251 8.40972C18.798 8.40972 18.3901 8.68367 18.2197 9.05555C18.1187 9.27884 18.084 9.44996 18.0722 9.72334H20.4447C20.4142 9.05555 20.1147 8.40972 19.3251 8.40972ZM18.0722 10.7844C18.0722 11.5818 18.5625 12.1688 19.438 12.1688C20.1191 12.1688 20.4577 11.9779 20.8515 11.5818L21.804 12.5013C21.1941 13.1099 20.5542 13.4796 19.4267 13.4796C17.9504 13.4796 16.5376 12.6658 16.5376 10.2941C16.5376 8.26768 17.7711 7.12049 19.3919 7.12049C21.0349 7.12049 21.984 8.46357 21.984 10.2228V10.7844H18.0722ZM15.2358 13.3732C13.9795 13.3732 13.4465 12.4891 13.4465 11.6158V5.54756H14.9862V7.22482H16.1469V8.48327H14.9862V11.5182C14.9862 11.8759 15.1532 12.0744 15.5205 12.0744H16.1469V13.3732H15.2358ZM5.9245 6.37409H4.37178V4.88297H5.9245V6.37409ZM5.9284 13.4456C4.76563 13.3327 4.37011 12.6196 4.37011 11.7969L4.3718 7.22482H5.92842L5.9284 13.4456ZM24.4347 13.3141C23.2743 13.2009 22.8807 12.4891 22.8807 11.6674V4.67075H24.4347V13.3141ZM29.8674 5.68191C28.459 -1.25959 15.1306 -1.69902 6.53958 3.5883V4.17202C15.1219 -0.286894 27.2937 -0.260626 28.4026 6.13279C28.7736 8.24685 27.5953 10.451 25.4907 11.7179V13.3754C28.0238 12.4386 30.6216 9.40061 29.8674 5.68191ZM14.2509 17.8268C8.32171 18.3809 2.14311 17.5109 1.27859 12.827C0.855421 10.518 1.89589 8.07029 3.27619 6.5499V5.73688C0.791389 7.9397 -0.557175 10.7285 0.219186 14.0237C1.2101 18.2492 6.51286 20.6438 14.6067 19.8486C17.809 19.5326 22.0004 18.4916 24.9143 16.8748V14.5778C22.2702 16.1695 17.8949 17.4857 14.2509 17.8268Z" fill="currentColor"/>
<path d="M26.2306 5.13536C26.2306 5.05918 26.1866 5.03498 26.086 5.03498H25.9889V5.25057C26.003 5.25057 26.0736 5.25319 26.086 5.25319C26.1866 5.25319 26.2306 5.21923 26.2306 5.14793V5.13536ZM26.382 5.66993H26.267C26.2566 5.66993 26.2475 5.66335 26.243 5.65454L26.086 5.38548C26.0832 5.38004 26.0697 5.37347 26.0643 5.37347H25.9938V5.64028C25.9938 5.65454 25.9841 5.66993 25.9656 5.66993H25.8614C25.8484 5.66993 25.8355 5.65454 25.8355 5.64028V4.96537C25.8355 4.92634 25.8505 4.91001 25.8832 4.90495C25.9199 4.90007 26.0198 4.89669 26.0736 4.89669C26.2647 4.89669 26.3804 4.95373 26.3804 5.13536V5.14793C26.3804 5.26032 26.3251 5.31961 26.2393 5.34869L26.4021 5.62696C26.4031 5.63258 26.4069 5.64028 26.4069 5.64684C26.4069 5.65773 26.4004 5.66993 26.382 5.66993ZM26.1088 4.77491C25.8256 4.77491 25.5966 5.01133 25.5966 5.29597C25.5966 5.58098 25.8256 5.81365 26.1088 5.81365C26.3906 5.81365 26.6218 5.58098 26.6218 5.29597C26.6218 5.01133 26.3906 4.77491 26.1088 4.77491ZM26.1088 5.92098C25.7647 5.92098 25.4902 5.64028 25.4902 5.29597C25.4902 4.95223 25.7647 4.67078 26.1088 4.67078C26.4492 4.67078 26.7289 4.95223 26.7289 5.29597C26.7289 5.64028 26.4492 5.92098 26.1088 5.92098Z" fill="currentColor"/>
</g>
<defs>
<clipPath id="clip0_79_1829">
<rect width="30" height="20" fill="currentColor"/>
</clipPath>
</defs>
</svg>
