<svg width="66" height="12" viewBox="0 0 66 12" fill="none" xmlns="http://www.w3.org/2000/svg">
<g clip-path="url(#clip0_79_1818)">
<path fill-rule="evenodd" clip-rule="evenodd" d="M64.5323 9.62757V9.44797H64.6482C64.7113 9.44797 64.7975 9.45277 64.7975 9.52957C64.7975 9.61277 64.7532 9.62757 64.6783 9.62757H64.5323ZM64.5323 9.75357H64.6095L64.7894 10.0672H64.9866L64.7878 9.74077C64.8904 9.73317 64.9749 9.68477 64.9749 9.54717C64.9749 9.37637 64.8562 9.32117 64.6558 9.32117H64.3656V10.0672H64.5323V9.75357ZM65.3766 9.69517C65.3766 9.25717 65.0341 9.00317 64.6522 9.00317C64.2679 9.00317 63.9258 9.25717 63.9258 9.69517C63.9258 10.1332 64.2679 10.3884 64.6522 10.3884C65.0337 10.3884 65.3766 10.1332 65.3766 9.69517ZM65.1673 9.69517C65.1673 10.0144 64.9311 10.2288 64.6522 10.2288V10.2264C64.3652 10.2288 64.1334 10.0144 64.1334 9.69517C64.1334 9.37637 64.3656 9.16277 64.6522 9.16277C64.9315 9.16277 65.1673 9.37637 65.1673 9.69517Z" fill="currentColor"/>
<path fill-rule="evenodd" clip-rule="evenodd" d="M38.7844 2.28277L38.7852 10.1468H41.0195V2.28277H38.7844ZM21.207 2.27237V10.1468H23.4619V4.03437L25.2206 4.03997C25.7989 4.03997 26.1985 4.17797 26.4774 4.47357C26.8311 4.84797 26.9752 5.45117 26.9752 6.55557V10.1468H29.1592V5.79597C29.1592 2.69077 27.168 2.27197 25.2198 2.27197H21.2074L21.207 2.27237ZM42.3822 2.28317V10.1468H46.0065C47.9374 10.1468 48.5677 9.82757 49.249 9.11197C49.7311 8.60957 50.0422 7.50637 50.0422 6.30117C50.0422 5.19597 49.7786 4.20997 49.319 3.59597C48.4912 2.49797 47.2988 2.28317 45.518 2.28317H42.3822ZM44.5988 3.99517H45.5594C46.9531 3.99517 47.8545 4.61757 47.8545 6.23157C47.8545 7.84637 46.9531 8.46837 45.5594 8.46837H44.5988V3.99517ZM35.5628 2.28317L33.6979 8.51517L31.9111 2.28357L29.4993 2.28317L32.0508 10.1468H35.2715L37.8435 2.28317H35.5628ZM51.0821 10.1468H53.3168V2.28357L51.0813 2.28317L51.0821 10.1468ZM57.3457 2.28597L54.2255 10.144H56.4289L56.9227 8.75517H60.6151L61.0823 10.144H63.4744L60.3305 2.28557L57.3457 2.28597ZM58.796 3.71997L60.1499 7.40157H57.4L58.796 3.71997Z" fill="currentColor"/>
<path fill-rule="evenodd" clip-rule="evenodd" d="M6.79679 3.594V2.512C6.90223 2.504 7.00928 2.4988 7.11794 2.4952C10.096 2.4024 12.0498 5.0388 12.0498 5.0388C12.0498 5.0388 9.93944 7.9516 7.67693 7.9516C7.37791 7.9528 7.08051 7.9056 6.79679 7.8116V4.53C7.95582 4.6692 8.18923 5.178 8.88626 6.3332L10.4365 5.034C10.4365 5.034 9.30479 3.5588 7.39723 3.5588C7.18998 3.5588 6.99157 3.5732 6.79679 3.594ZM6.79679 0.0187988V1.636C6.90344 1.6276 7.01049 1.6208 7.11794 1.6168C11.259 1.4784 13.9574 4.9928 13.9574 4.9928C13.9574 4.9928 10.8586 8.7384 7.62984 8.7384C7.33405 8.7384 7.05677 8.7112 6.79679 8.6652V9.6644C7.01934 9.6924 7.24994 9.7092 7.4906 9.7092C10.4948 9.7092 12.6676 8.1844 14.7715 6.3792C15.1204 6.6568 16.5487 7.3324 16.8421 7.6284C14.8415 9.2924 10.1797 10.6344 7.53648 10.6344C7.28938 10.6336 7.04268 10.6208 6.79679 10.596V12H18.216V0.0187988H6.79679ZM6.79679 7.8116V8.6652C4.01795 8.1732 3.24648 5.3016 3.24648 5.3016C3.24648 5.3016 4.58096 3.832 6.79679 3.594V4.53L6.79237 4.5296C5.62932 4.3908 4.72101 5.4708 4.72101 5.4708C4.72101 5.4708 5.2301 7.2884 6.79679 7.8116ZM1.86128 5.1772C1.86128 5.1772 3.50806 2.7612 6.79679 2.512V1.6352C3.15432 1.926 0 4.992 0 4.992C0 4.992 1.78643 10.1252 6.79679 10.5952V9.6644C3.12011 9.2048 1.86128 5.1772 1.86128 5.1772Z" fill="#76B900"/>
</g>
<defs>
<clipPath id="clip0_79_1818">
<rect width="66" height="12" fill="currentColor"/>
</clipPath>
</defs>
</svg>
