<svg width="70" height="13" viewBox="0 0 70 13" fill="none" xmlns="http://www.w3.org/2000/svg">
<path d="M1.94399 5.39863C1.94399 5.39863 3.6643 2.87048 7.0992 2.60894V1.69173C3.29462 1.99607 0 5.20561 0 5.20561C0 5.20561 1.86602 10.5786 7.0992 11.0705V10.0956C3.25884 9.6144 1.94399 5.39863 1.94399 5.39863ZM7.0992 8.15673V9.04957C4.19674 8.53417 3.39109 5.52899 3.39109 5.52899C3.39109 5.52899 4.78468 3.9913 7.0992 3.74193V4.72165C7.09744 4.72165 7.09622 4.72112 7.09476 4.72112C5.87998 4.57592 4.93099 5.70625 4.93099 5.70625C4.93099 5.70625 5.4629 7.60911 7.0992 8.15673ZM7.0992 0V1.69173C7.21088 1.6832 7.32257 1.67597 7.43487 1.67216C11.7603 1.52696 14.5786 5.20561 14.5786 5.20561C14.5786 5.20561 11.3417 9.12602 7.96937 9.12602C7.6603 9.12602 7.37096 9.09747 7.0992 9.0495V10.0956C7.33159 10.125 7.57254 10.1423 7.82397 10.1423C10.9621 10.1423 13.2315 8.54597 15.429 6.65665C15.7933 6.94729 17.2849 7.65434 17.5915 7.96386C15.5022 9.70622 10.6327 11.1107 7.87205 11.1107C7.60595 11.1107 7.35039 11.0947 7.0992 11.0705V12.5405H19.027V0H7.0992ZM7.0992 3.74193V2.60894C7.20974 2.60124 7.32112 2.59538 7.43487 2.5918C10.5453 2.49449 12.5859 5.25411 12.5859 5.25411C12.5859 5.25411 10.3818 8.30307 8.0186 8.30307C7.6785 8.30307 7.37363 8.24863 7.0992 8.15673V4.72165C8.31008 4.86739 8.55371 5.40015 9.2817 6.60891L10.9008 5.24909C10.9008 5.24909 9.71888 3.70515 7.7265 3.70515C7.50993 3.70508 7.30269 3.72023 7.0992 3.74193Z" fill="#77B900"/>
<path d="M64.2369 3.39936L65.7888 7.64511H62.6369L64.2369 3.39936ZM62.5748 1.74619L58.9982 10.8079H61.5238L62.0895 9.20676H66.322L66.8574 10.8079H69.5991L65.9959 1.74501L62.5748 1.74619ZM55.3943 10.8113H57.9566V1.7434L55.3939 1.74282L55.3943 10.8113ZM37.6066 1.74282L35.4689 8.92984L33.421 1.7434L30.6564 1.74282L33.5811 10.8113H37.2724L40.2207 1.74282H37.6066ZM47.9636 3.71743H49.0649C50.6625 3.71743 51.6958 4.43469 51.6958 6.2961C51.6958 8.15795 50.6625 8.87536 49.0649 8.87536H47.9636V3.71743ZM45.4229 1.74282V10.8113H49.5768C51.79 10.8113 52.5127 10.4434 53.2941 9.61811C53.846 9.03864 54.203 7.76695 54.203 6.37679C54.203 5.10173 53.9009 3.9652 53.3742 3.25701C52.4251 1.99045 51.0579 1.74282 49.0176 1.74282H45.4229ZM21.1514 1.73022V10.8113H23.7353V3.916L25.7375 3.91659C26.4004 3.91659 26.873 4.08177 27.1922 4.42283C27.5971 4.8541 27.7624 5.55028 27.7624 6.82373V10.8113H30.2663V5.79395C30.2663 2.21304 27.9839 1.73022 25.7506 1.73022H21.1514ZM41.2991 1.74282L41.3001 10.8113H43.8612V1.74282H41.2991Z" fill="currentColor"/>
</svg>
