<svg width="101" height="25" viewBox="0 0 101 25" fill="none" xmlns="http://www.w3.org/2000/svg">
<g>
<rect width="101" height="25" rx="4" fill="currentColor" fill-opacity="0.08"/>
<rect x="0.5" y="0.5" width="100" height="24" rx="3.5" stroke="currentColor" stroke-opacity="0.16"/>
<g>
<path d="M18.7497 6.46436C18.3027 6.46436 17.8876 6.69615 17.6534 7.0772L15.1301 10.8234C15.0479 10.9469 15.0812 11.1133 15.2047 11.1955C15.3048 11.2623 15.4372 11.254 15.5283 11.1756L18.0121 9.02133C18.0533 8.98419 18.1169 8.98797 18.1541 9.02924C18.1709 9.04816 18.1799 9.07258 18.1799 9.09768V15.8425C18.1799 15.8982 18.1348 15.9429 18.0791 15.9429C18.0492 15.9429 18.021 15.9298 18.0021 15.9068L10.4942 6.91969C10.2496 6.63115 9.8906 6.4647 9.51264 6.46436H9.25024C8.54006 6.46436 7.96436 7.04006 7.96436 7.75024V17.2497C7.96436 17.9599 8.54006 18.5356 9.25024 18.5356C9.69732 18.5356 10.1124 18.3038 10.3466 17.9228L12.8699 14.1766C12.9521 14.0531 12.9187 13.8866 12.7953 13.8044C12.6952 13.7377 12.5628 13.746 12.4717 13.8244L9.98793 15.9786C9.94666 16.0158 9.88303 16.012 9.84589 15.9707C9.82904 15.9518 9.8201 15.9274 9.82044 15.9023V9.1558C9.82044 9.10009 9.86549 9.05538 9.92121 9.05538C9.95078 9.05538 9.97933 9.06845 9.99824 9.09149L17.5051 18.0803C17.7497 18.3688 18.1087 18.5353 18.4867 18.5356H18.7491C19.4592 18.536 20.0353 17.9606 20.036 17.2504V7.75024C20.036 7.04006 19.4603 6.46436 18.7501 6.46436H18.7497Z" fill="currentColor"/>
</g>
<path d="M26.3665 7.81818L29.0163 15.8324H29.1207L31.7656 7.81818H33.794L30.2045 18H27.9276L24.343 7.81818H26.3665ZM37.0559 18.1491C36.2903 18.1491 35.6291 17.9901 35.0723 17.6719C34.5188 17.3504 34.0929 16.8963 33.7946 16.3097C33.4963 15.7197 33.3471 15.0253 33.3471 14.2266C33.3471 13.4411 33.4963 12.7517 33.7946 12.1584C34.0962 11.5618 34.5171 11.0978 35.0574 10.7663C35.5976 10.4316 36.2323 10.2642 36.9615 10.2642C37.4321 10.2642 37.8763 10.3404 38.2939 10.4929C38.7148 10.642 39.086 10.8741 39.4075 11.1889C39.7323 11.5038 39.9875 11.9048 40.1731 12.392C40.3587 12.8759 40.4515 13.4527 40.4515 14.1222V14.674H34.1923V13.4609H38.7264C38.7231 13.1162 38.6485 12.8097 38.5027 12.5412C38.3568 12.2694 38.153 12.0556 37.8912 11.8999C37.6326 11.7441 37.331 11.6662 36.9863 11.6662C36.6184 11.6662 36.2953 11.7557 36.0169 11.9347C35.7385 12.1103 35.5214 12.3423 35.3656 12.6307C35.2131 12.9157 35.1353 13.2289 35.1319 13.5703V14.6293C35.1319 15.0734 35.2131 15.4545 35.3755 15.7727C35.538 16.0876 35.765 16.3295 36.0567 16.4986C36.3483 16.6643 36.6897 16.7472 37.0808 16.7472C37.3426 16.7472 37.5796 16.7107 37.7917 16.6378C38.0039 16.5616 38.1878 16.4505 38.3436 16.3047C38.4994 16.1589 38.617 15.9782 38.6966 15.7628L40.377 15.9517C40.2709 16.3958 40.0687 16.7836 39.7704 17.1151C39.4755 17.4432 39.0976 17.6984 38.6369 17.8807C38.1762 18.0597 37.6492 18.1491 37.0559 18.1491ZM41.4141 18V10.3636H43.1591V11.6364H43.2387C43.3779 11.1955 43.6165 10.8558 43.9546 10.6172C44.296 10.3752 44.6854 10.2543 45.1229 10.2543C45.2223 10.2543 45.3334 10.2592 45.456 10.2692C45.5819 10.2758 45.6863 10.2874 45.7692 10.304V11.9595C45.693 11.933 45.572 11.9098 45.4063 11.8899C45.2439 11.8667 45.0864 11.8551 44.934 11.8551C44.6059 11.8551 44.3109 11.9264 44.049 12.0689C43.7905 12.2081 43.5867 12.402 43.4375 12.6506C43.2884 12.8991 43.2138 13.1858 43.2138 13.5107V18H41.4141ZM46.4049 18V10.3636H48.2046V18H46.4049ZM47.3097 9.27983C47.0247 9.27983 46.7794 9.18537 46.5739 8.99645C46.3684 8.80421 46.2657 8.57386 46.2657 8.3054C46.2657 8.03362 46.3684 7.80327 46.5739 7.61435C46.7794 7.42211 47.0247 7.32599 47.3097 7.32599C47.5981 7.32599 47.8433 7.42211 48.0455 7.61435C48.251 7.80327 48.3537 8.03362 48.3537 8.3054C48.3537 8.57386 48.251 8.80421 48.0455 8.99645C47.8433 9.18537 47.5981 9.27983 47.3097 9.27983ZM53.3632 10.3636V11.7557H48.849V10.3636H53.3632ZM49.9775 18V9.64276C49.9775 9.12902 50.0836 8.70147 50.2957 8.36008C50.5111 8.0187 50.7995 7.76349 51.1607 7.59446C51.522 7.42543 51.9231 7.34091 52.3639 7.34091C52.6754 7.34091 52.9522 7.36577 53.1941 7.41548C53.4361 7.4652 53.6151 7.50994 53.7311 7.54972L53.3731 8.94176C53.2969 8.91856 53.2008 8.89536 53.0848 8.87216C52.9687 8.84564 52.8395 8.83239 52.697 8.83239C52.3622 8.83239 52.1252 8.91359 51.986 9.07599C51.8501 9.23508 51.7822 9.46378 51.7822 9.76207V18H49.9775ZM54.2126 18V10.3636H56.0123V18H54.2126ZM55.1174 9.27983C54.8324 9.27983 54.5871 9.18537 54.3816 8.99645C54.1761 8.80421 54.0734 8.57386 54.0734 8.3054C54.0734 8.03362 54.1761 7.80327 54.3816 7.61435C54.5871 7.42211 54.8324 7.32599 55.1174 7.32599C55.4058 7.32599 55.6511 7.42211 55.8532 7.61435C56.0587 7.80327 56.1615 8.03362 56.1615 8.3054C56.1615 8.57386 56.0587 8.80421 55.8532 8.99645C55.6511 9.18537 55.4058 9.27983 55.1174 9.27983ZM60.6837 18.1491C59.9181 18.1491 59.2568 17.9901 58.7 17.6719C58.1465 17.3504 57.7206 16.8963 57.4223 16.3097C57.124 15.7197 56.9749 15.0253 56.9749 14.2266C56.9749 13.4411 57.124 12.7517 57.4223 12.1584C57.7239 11.5618 58.1449 11.0978 58.6851 10.7663C59.2253 10.4316 59.8601 10.2642 60.5892 10.2642C61.0599 10.2642 61.504 10.3404 61.9216 10.4929C62.3425 10.642 62.7137 10.8741 63.0352 11.1889C63.3601 11.5038 63.6153 11.9048 63.8009 12.392C63.9865 12.8759 64.0793 13.4527 64.0793 14.1222V14.674H57.82V13.4609H62.3541C62.3508 13.1162 62.2762 12.8097 62.1304 12.5412C61.9846 12.2694 61.7807 12.0556 61.5189 11.8999C61.2604 11.7441 60.9588 11.6662 60.6141 11.6662C60.2462 11.6662 59.923 11.7557 59.6446 11.9347C59.3662 12.1103 59.1491 12.3423 58.9933 12.6307C58.8409 12.9157 58.763 13.2289 58.7597 13.5703V14.6293C58.7597 15.0734 58.8409 15.4545 59.0033 15.7727C59.1657 16.0876 59.3927 16.3295 59.6844 16.4986C59.9761 16.6643 60.3174 16.7472 60.7085 16.7472C60.9704 16.7472 61.2074 16.7107 61.4195 16.6378C61.6316 16.5616 61.8155 16.4505 61.9713 16.3047C62.1271 16.1589 62.2448 15.9782 62.3243 15.7628L64.0047 15.9517C63.8986 16.3958 63.6965 16.7836 63.3982 17.1151C63.1032 17.4432 62.7253 17.6984 62.2646 17.8807C61.8039 18.0597 61.277 18.1491 60.6837 18.1491ZM67.8756 18.1342C67.2757 18.1342 66.7388 17.9801 66.2648 17.6719C65.7909 17.3636 65.4164 16.9162 65.1413 16.3295C64.8662 15.7429 64.7286 15.0303 64.7286 14.1918C64.7286 13.3433 64.8678 12.6274 65.1462 12.044C65.428 11.4574 65.8075 11.0149 66.2847 10.7166C66.762 10.415 67.294 10.2642 67.8806 10.2642C68.328 10.2642 68.6959 10.3404 68.9843 10.4929C69.2727 10.642 69.5013 10.8227 69.6704 11.0348C69.8394 11.2436 69.9703 11.4408 70.0631 11.6264H70.1377V7.81818H71.9424V18H70.1725V16.7969H70.0631C69.9703 16.9825 69.8361 17.1797 69.6604 17.3885C69.4848 17.594 69.2528 17.7696 68.9644 17.9155C68.6761 18.0613 68.3131 18.1342 67.8756 18.1342ZM68.3778 16.6577C68.7589 16.6577 69.0837 16.5549 69.3522 16.3494C69.6207 16.1406 69.8245 15.8506 69.9637 15.4794C70.1029 15.1082 70.1725 14.6757 70.1725 14.1818C70.1725 13.688 70.1029 13.2588 69.9637 12.8942C69.8278 12.5296 69.6256 12.2462 69.3572 12.044C69.092 11.8419 68.7655 11.7408 68.3778 11.7408C67.9767 11.7408 67.642 11.8452 67.3735 12.054C67.105 12.2628 66.9029 12.5511 66.767 12.919C66.6311 13.2869 66.5631 13.7079 66.5631 14.1818C66.5631 14.6591 66.6311 15.085 66.767 15.4595C66.9062 15.8307 67.11 16.1241 67.3785 16.3395C67.6503 16.5516 67.9834 16.6577 68.3778 16.6577Z" fill="currentColor"/>
<path fill-rule="evenodd" clip-rule="evenodd" d="M85.0001 18.9C88.5347 18.9 91.4001 16.0346 91.4001 12.5C91.4001 8.96535 88.5347 6.09998 85.0001 6.09998C81.4655 6.09998 78.6001 8.96535 78.6001 12.5C78.6001 16.0346 81.4655 18.9 85.0001 18.9ZM88.0853 11.0529C88.2802 10.7849 88.221 10.4096 87.953 10.2147C87.685 10.0198 87.3098 10.0791 87.1149 10.3471L84.3279 14.1792L82.8244 12.6757C82.59 12.4414 82.2101 12.4414 81.9758 12.6757C81.7415 12.91 81.7415 13.2899 81.9758 13.5242L83.9758 15.5242C84.0999 15.6483 84.2721 15.7119 84.447 15.6981C84.622 15.6844 84.7821 15.5948 84.8853 15.4529L88.0853 11.0529Z" fill="currentColor"/>
</g>
</svg>
