<svg width="20" height="20" viewBox="0 0 20 20" fill="none" xmlns="http://www.w3.org/2000/svg">
<path d="M4.81738 3.98499C7.90901 0.893481 12.922 0.893479 16.0137 3.98499C19.1053 7.0766 19.1052 12.0896 16.0137 15.1813C13.4856 17.7093 9.6746 18.1698 6.67871 16.5651L2.80078 18.2994C2.48541 18.4404 2.11537 18.3718 1.87109 18.1276C1.62686 17.8832 1.55915 17.5132 1.7002 17.1979L3.43457 13.3199C1.82978 10.324 2.28931 6.51306 4.81738 3.98499ZM14.835 5.1637C12.3942 2.72306 8.43684 2.72307 5.99609 5.1637C3.91426 7.24553 3.60771 10.4328 5.0791 12.8395C5.22215 13.0736 5.24076 13.3634 5.12891 13.6139L4.1123 15.8864L6.38477 14.8707C6.63546 14.7586 6.92487 14.7773 7.15918 14.9205C9.56584 16.3919 12.7531 16.0844 14.835 14.0026C17.2756 11.5618 17.2757 7.60444 14.835 5.1637Z" fill="black"/>
</svg>
