<svg xmlns="http://www.w3.org/2000/svg" width="32" height="32" viewBox="0 0 32 32" fill="none">
    <path d="M21 7.66699C22.8407 7.66724 24.333 9.1592 24.333 11V16.833C24.333 18.6738 22.8407 20.1667 21 20.167H20.166V21C20.166 22.8409 18.6739 24.3329 16.833 24.333H11C9.15905 24.333 7.66602 22.841 7.66602 21V15.167C7.66602 13.326 9.15905 11.833 11 11.833H11.833V11C11.833 9.15912 13.3252 7.6671 15.166 7.66699H21ZM11 13.5C10.0795 13.5 9.33301 14.2465 9.33301 15.167V21C9.33301 21.9205 10.0795 22.667 11 22.667H16.833C17.7534 22.6669 18.5 21.9204 18.5 21V15.167C18.5 14.2466 17.7534 13.5001 16.833 13.5H11ZM15.166 9.33301C14.2456 9.33311 13.5 10.0796 13.5 11V11.833H16.833C18.6739 11.8331 20.166 13.3261 20.166 15.167V18.5H21C21.9203 18.4998 22.666 17.7533 22.666 16.833V11C22.666 10.0797 21.9203 9.33325 21 9.33301H15.166Z" fill="currentColor"/>
</svg>