<svg width="20" height="20" viewBox="0 0 20 20" fill="none" xmlns="http://www.w3.org/2000/svg">
<path d="M15.0005 1.66663C16.8411 1.66687 18.3333 3.15899 18.3335 4.99963V10.8336C18.3333 12.6743 16.8411 14.1664 15.0005 14.1666H14.1665V14.9996C14.1665 16.8405 12.6744 18.3335 10.8335 18.3336H5.00049C3.15954 18.3336 1.6665 16.8406 1.6665 14.9996V9.16663C1.66651 7.32568 3.15954 5.83362 5.00049 5.83362H5.8335V4.99963C5.83367 3.1589 7.32575 1.66673 9.1665 1.66663H15.0005ZM5.00049 7.49963C4.08002 7.49963 3.3335 8.24615 3.3335 9.16663V14.9996C3.3335 15.9201 4.08001 16.6666 5.00049 16.6666H10.8335C11.7539 16.6666 12.5005 15.9201 12.5005 14.9996V9.16663C12.5005 8.2462 11.7539 7.4997 10.8335 7.49963H5.00049ZM9.1665 3.33362C8.24623 3.33372 7.50067 4.07938 7.50049 4.99963V5.83362H10.8335C12.6744 5.83369 14.1665 7.32572 14.1665 9.16663V12.4996H15.0005C15.9206 12.4994 16.6663 11.7538 16.6665 10.8336V4.99963C16.6663 4.07946 15.9206 3.33386 15.0005 3.33362H9.1665Z" fill="currentColor"/>
</svg>
