<svg width="20" height="20" viewBox="0 0 20 20" fill="none" xmlns="http://www.w3.org/2000/svg">
<path d="M17.5005 13.3336C17.9605 13.3339 18.3335 13.7065 18.3335 14.1666V16.6666C18.3335 18.0473 17.2141 19.1666 15.8335 19.1666H4.1665C2.78588 19.1665 1.6665 18.0473 1.6665 16.6666V14.1666C1.66651 13.7064 2.04025 13.3336 2.50049 13.3336C2.96051 13.3339 3.33349 13.7065 3.3335 14.1666V16.6666C3.3335 17.1268 3.70635 17.4995 4.1665 17.4996H15.8335C16.2937 17.4996 16.6665 17.1268 16.6665 16.6666V14.1666C16.6665 13.7064 17.0403 13.3336 17.5005 13.3336ZM10.0005 0.833618C10.4605 0.833865 10.8335 1.20654 10.8335 1.66663V11.3219L12.7437 9.41077C13.0691 9.08536 13.5969 9.08543 13.9224 9.41077C14.2478 9.7362 14.2478 10.264 13.9224 10.5895L10.5835 13.9283C10.4337 14.0752 10.2286 14.166 10.0024 14.1666H9.99756C9.88548 14.1663 9.77868 14.1436 9.68115 14.1031C9.58523 14.0635 9.49505 14.0054 9.4165 13.9283C9.41448 13.9264 9.41265 13.9235 9.41064 13.9215L6.07764 10.5895C5.7522 10.264 5.7522 9.7362 6.07764 9.41077C6.40308 9.0854 6.93093 9.08535 7.25635 9.41077L9.1665 11.3219V1.66663C9.16651 1.20639 9.54025 0.833618 10.0005 0.833618Z" fill="currentColor"/>
</svg>
