<svg width="20" height="20" viewBox="0 0 20 20" fill="none" xmlns="http://www.w3.org/2000/svg">
<path d="M10 0.833008C15.0624 0.833255 19.166 4.93754 19.166 10C19.166 15.0625 15.0624 19.1667 10 19.167C4.93739 19.167 0.833008 15.0626 0.833008 10C0.833009 4.93739 4.93739 0.833008 10 0.833008ZM10 2.5C5.85786 2.5 2.5 5.85786 2.5 10C2.5 14.1421 5.85786 17.5 10 17.5C14.1419 17.4998 17.5 14.142 17.5 10C17.5 5.85802 14.1419 2.50025 10 2.5ZM10 9.16699C10.46 9.16724 10.833 9.53992 10.833 10V13.333C10.833 13.7931 10.46 14.1667 10 14.167C9.53976 14.167 9.16602 13.7932 9.16602 13.333V10C9.16602 9.53976 9.53976 9.16699 10 9.16699ZM10 5.83301C10.46 5.83325 10.833 6.20691 10.833 6.66699C10.8328 7.12693 10.4599 7.49975 10 7.5C9.53987 7.5 9.16619 7.12708 9.16602 6.66699C9.16602 6.20675 9.53976 5.83301 10 5.83301Z" fill="black"/>
</svg>
