<svg width="20" height="20" viewBox="0 0 20 20" fill="none" xmlns="http://www.w3.org/2000/svg">
<path d="M18.3415 8.03706C18.793 6.69992 18.6375 5.23514 17.9155 4.01888C16.8297 2.15339 14.6468 1.19364 12.515 1.64529C11.5666 0.591035 10.204 -0.00850001 8.77555 9.10798e-05C6.59643 -0.00481812 4.66297 1.37958 3.99257 3.42548C2.59269 3.70837 1.38435 4.57301 0.677254 5.79847C-0.416656 7.65905 -0.167277 10.0044 1.29417 11.5999C0.842678 12.937 0.998151 14.4018 1.72017 15.6181C2.80599 17.4836 4.98884 18.4433 7.12069 17.9917C8.06845 19.0459 9.43165 19.6455 10.8601 19.6363C13.0405 19.6418 14.9746 18.2562 15.645 16.2084C17.0449 15.9255 18.2532 15.0609 18.9603 13.8354C20.053 11.9748 19.803 9.63132 18.3421 8.03583L18.3415 8.03706ZM10.8614 18.3531C9.98886 18.3543 9.14371 18.053 8.47393 17.5014C8.5044 17.4854 8.55726 17.4566 8.59147 17.4357L12.5542 15.1775C12.7569 15.064 12.8813 14.851 12.88 14.6209V9.10849L14.5548 10.0627C14.5728 10.0713 14.5847 10.0885 14.5871 10.1081V14.6731C14.5847 16.703 12.9186 18.3488 10.8614 18.3531ZM2.84891 14.9762C2.41171 14.2312 2.25438 13.358 2.40425 12.5106C2.43348 12.5277 2.4851 12.559 2.52179 12.5799L6.48449 14.8381C6.68536 14.9541 6.93412 14.9541 7.13562 14.8381L11.9733 12.0816V13.9901C11.9746 14.0097 11.9652 14.0287 11.9497 14.041L7.94408 16.3232C6.15986 17.3369 3.88125 16.7343 2.84953 14.9762H2.84891ZM1.80599 6.44096C2.24132 5.69476 2.92851 5.12406 3.74692 4.82767C3.74692 4.86142 3.74505 4.92095 3.74505 4.96268V9.47975C3.74381 9.70925 3.86819 9.92219 4.0703 10.0357L8.90801 12.7916L7.23325 13.7458C7.21646 13.7569 7.19532 13.7587 7.17666 13.7507L3.17042 11.4667C1.38994 10.4493 0.779245 8.20152 1.80537 6.44157L1.80599 6.44096ZM15.566 9.60064L10.7283 6.84412L12.4031 5.89051C12.4198 5.87947 12.441 5.87763 12.4596 5.8856L16.4659 8.16777C18.2495 9.18458 18.8608 11.4361 17.8303 13.196C17.3944 13.941 16.7078 14.5117 15.89 14.8087V10.1566C15.8919 9.9271 15.7681 9.71478 15.5666 9.60064H15.566ZM17.2327 7.12518C17.2034 7.10738 17.1518 7.0767 17.1151 7.05583L13.1524 4.7976C12.9516 4.68162 12.7028 4.68162 12.5013 4.7976L7.6636 7.55412V5.64567C7.66236 5.62603 7.67169 5.60701 7.68723 5.59473L11.6928 3.31441C13.4771 2.29882 15.7582 2.90327 16.7868 4.66444C17.2215 5.40818 17.3788 6.27895 17.2314 7.12518H17.2327ZM6.75315 10.5266L5.07777 9.57241C5.05974 9.56382 5.04792 9.54664 5.04543 9.527V4.96206C5.04668 2.92965 6.7177 1.28262 8.77741 1.28385C9.64869 1.28385 10.492 1.58576 11.1618 2.13559C11.1313 2.15155 11.079 2.18039 11.0442 2.20125L7.08151 4.45948C6.87877 4.57301 6.7544 4.78533 6.75564 5.01545L6.75315 10.5254V10.5266ZM7.66298 8.59118L9.81784 7.36327L11.9727 8.59057V11.0458L9.81784 12.2731L7.66298 11.0458V8.59118Z" fill="black"/>
</svg>
