<svg xmlns="http://www.w3.org/2000/svg" width="20" height="20" viewBox="0 0 20 20" fill="none">
    <path d="M17.5005 17.5005C17.9605 17.5008 18.3335 17.8735 18.3335 18.3336C18.3334 18.7935 17.9604 19.1663 17.5005 19.1666H2.50049C2.04032 19.1666 1.66662 18.7937 1.6665 18.3336C1.6665 17.8733 2.04025 17.5005 2.50049 17.5005H17.5005ZM11.1411 1.02106C11.4684 0.754098 11.9513 0.772601 12.2563 1.0777L15.5894 4.41071C15.9147 4.73613 15.9147 5.26401 15.5894 5.58942L6.42236 14.7564C6.26615 14.9124 6.05429 15.0005 5.8335 15.0005H2.50049C2.04032 15.0005 1.66661 14.6267 1.6665 14.1666V10.8336C1.6665 10.6127 1.75459 10.4009 1.91064 10.2447L11.0776 1.0777L11.1411 1.02106ZM3.3335 11.1783V13.3336H5.48877L13.8218 5.00055L11.6665 2.84528L3.3335 11.1783Z" fill="currentColor"/>
    </svg>