<svg width="20" height="20" viewBox="0 0 20 20" fill="none" xmlns="http://www.w3.org/2000/svg">
<path d="M4.51172 2.15515C5.16254 1.50433 6.21728 1.50443 6.86816 2.15515L8.39258 3.67859C8.70494 3.99101 8.88072 4.41454 8.88086 4.85632V5.3446L10.5322 6.99695C10.8716 6.82411 11.3428 6.6303 11.9072 6.52527C13.1467 6.29481 14.7574 6.50832 16.2969 8.04773C16.453 8.20396 16.541 8.41573 16.541 8.6366C16.541 8.8575 16.4531 9.06924 16.2969 9.22546L13.3506 12.1718L16.7842 15.6053C17.1094 15.9308 17.1095 16.4587 16.7842 16.7841C16.4588 17.1094 15.9309 17.1093 15.6055 16.7841L12.1719 13.3505L9.22656 16.2968C8.90121 16.6221 8.3733 16.6219 8.04785 16.2968C6.51285 14.7617 6.3018 13.1508 6.53027 11.912C6.63465 11.3463 6.82705 10.8742 6.99902 10.5341L5.34473 8.88074H4.85645C4.41469 8.88058 3.99112 8.7048 3.67871 8.39246L2.15527 6.86804C1.50455 6.21715 1.50445 5.16242 2.15527 4.5116L4.51172 2.15515ZM3.33301 5.69031L4.85645 7.21375H5.69043C5.91123 7.21383 6.12311 7.30181 6.2793 7.45789L8.63672 9.81531C8.93202 10.1108 8.96242 10.5786 8.70898 10.91C8.63061 11.0145 8.5661 11.1315 8.50586 11.2469C8.38225 11.484 8.24191 11.8187 8.16895 12.2137C8.0574 12.8186 8.09037 13.6123 8.6875 14.4784L14.4795 8.6864C13.6089 8.0841 12.8148 8.05276 12.2119 8.16492C11.8178 8.23826 11.4842 8.37864 11.248 8.50281C11.1335 8.56307 11.0179 8.62901 10.9141 8.70691C10.5826 8.96273 10.1119 8.93291 9.81543 8.6366L7.45898 6.27917C7.3028 6.12299 7.21495 5.91118 7.21484 5.69031V4.85632L5.69043 3.33289L3.33301 5.69031Z" fill="currentColor"/>
</svg>
