<svg width="20" height="20" viewBox="0 0 20 20" fill="none" xmlns="http://www.w3.org/2000/svg">
<path d="M10 0C11.3805 0.000246604 12.5 1.11944 12.5 2.5V2.57324C12.5015 2.78851 12.6302 2.98254 12.8281 3.06738L12.8359 3.07129C13.0374 3.16018 13.2724 3.11763 13.4307 2.96484L13.4766 2.91895C13.9454 2.44969 14.5818 2.18659 15.2451 2.18652C15.9084 2.18652 16.5448 2.44979 17.0137 2.91895C17.4827 3.3878 17.7471 4.02428 17.7471 4.6875C17.7471 5.35078 17.4828 5.98719 17.0137 6.45605L16.9678 6.50195C16.815 6.66023 16.7734 6.89519 16.8623 7.09668C16.8859 7.15006 16.9031 7.20589 16.915 7.2627C17.0139 7.40841 17.18 7.49887 17.3604 7.5H17.5C18.8805 7.50024 20 8.61944 20 10C20 11.3806 18.8805 12.4998 17.5 12.5H17.4268C17.2115 12.5013 17.0176 12.6302 16.9326 12.8281L16.9287 12.8369C16.84 13.0383 16.8815 13.2734 17.0342 13.4316L17.0801 13.4775C17.5493 13.9464 17.8135 14.5827 17.8135 15.2461C17.8134 15.9094 17.5493 16.5458 17.0801 17.0146C16.6113 17.4835 15.9755 17.747 15.3125 17.7471C14.6491 17.7471 14.0119 17.4829 13.543 17.0137L13.498 16.9678C13.3398 16.815 13.1038 16.7734 12.9023 16.8623L12.8945 16.8662C12.6965 16.9511 12.5678 17.145 12.5664 17.3604V17.5C12.5664 18.8806 11.447 19.9999 10.0664 20C8.68569 20 7.56641 18.8807 7.56641 17.5V17.4365C7.55808 17.2175 7.41808 17.0251 7.21191 16.9492C7.19544 16.9432 7.17915 16.9358 7.16309 16.9287C6.96161 16.8398 6.72661 16.8824 6.56836 17.0352L6.52246 17.0811C6.05362 17.5503 5.41721 17.8134 4.75391 17.8135C4.09069 17.8135 3.45421 17.5501 2.98535 17.0811C2.51605 16.6122 2.25195 15.9759 2.25195 15.3125C2.25195 14.6491 2.51605 14.0128 2.98535 13.5439L3.03125 13.498C3.18407 13.3398 3.22565 13.1048 3.13672 12.9033L3.13379 12.8945C3.04884 12.6966 2.85397 12.5678 2.63867 12.5664H2.5C1.11929 12.5664 0 11.4471 0 10.0664C0.000142603 8.68581 1.11938 7.56641 2.5 7.56641H2.5625C2.78176 7.55825 2.97487 7.4183 3.05078 7.21191C3.0568 7.19557 3.06328 7.17902 3.07031 7.16309C3.15906 6.96165 3.11759 6.72656 2.96484 6.56836L2.91895 6.52246C2.44965 6.05356 2.18555 5.41732 2.18555 4.75391C2.18562 4.09063 2.44977 3.45418 2.91895 2.98535C3.3878 2.51634 4.0243 2.25293 4.6875 2.25293C5.35086 2.25305 5.98724 2.51699 6.45605 2.98633L6.50195 3.03223C6.66023 3.18467 6.89539 3.22653 7.09668 3.1377C7.14989 3.11423 7.2051 3.09586 7.26172 3.08398C7.40741 2.9851 7.49885 2.81999 7.5 2.63965V2.5C7.5 1.11929 8.61929 0 10 0ZM10 1.66699C9.53976 1.66699 9.16602 2.03976 9.16602 2.5V2.64453C9.1625 3.52462 8.63701 4.31923 7.82812 4.66602C7.75771 4.69619 7.68304 4.71666 7.60742 4.72656C6.81997 5.0025 5.93659 4.81112 5.33301 4.2207L5.32715 4.21387L5.27637 4.16406C5.12017 4.00773 4.90848 3.92004 4.6875 3.91992C4.46634 3.91992 4.25396 4.0076 4.09766 4.16406L4.09668 4.16504C3.94044 4.32126 3.85261 4.53296 3.85254 4.75391C3.85254 4.9749 3.94044 5.18748 4.09668 5.34375L4.15332 5.40039C4.77845 6.03946 4.95603 6.992 4.60547 7.8125C4.2861 8.64979 3.4914 9.2124 2.59375 9.2334H2.5C2.03985 9.2334 1.66616 9.60629 1.66602 10.0664C1.66602 10.5266 2.03976 10.9004 2.5 10.9004H2.64453C3.52321 10.9039 4.3164 11.4277 4.66406 12.2344C5.02603 13.0592 4.85069 14.0218 4.2207 14.666L4.21387 14.6729L4.16309 14.7227C4.00664 14.879 3.91895 15.0914 3.91895 15.3125C3.91895 15.5336 4.00665 15.746 4.16309 15.9023H4.16406C4.32037 16.0588 4.53273 16.1475 4.75391 16.1475C4.97501 16.1474 5.18749 16.0588 5.34375 15.9023L5.40039 15.8457C6.03936 15.2209 6.99122 15.0432 7.81152 15.3936C8.64889 15.7128 9.21132 16.5076 9.23242 17.4053V17.5C9.23242 17.9602 9.60617 18.333 10.0664 18.333C10.5266 18.3329 10.8994 17.9602 10.8994 17.5V17.3555C10.9029 16.4768 11.4276 15.6836 12.2344 15.3359C13.0593 14.9741 14.0218 15.1492 14.666 15.7793L14.6719 15.7861L14.7227 15.8359C14.879 15.9924 15.0913 16.0801 15.3125 16.0801C15.5335 16.08 15.7452 15.9923 15.9014 15.8359L15.9023 15.835C16.0586 15.6787 16.1464 15.4671 16.1465 15.2461C16.1465 15.0251 16.0586 14.8125 15.9023 14.6562L15.8457 14.5996C15.2155 13.9554 15.0403 12.9929 15.4023 12.168C15.7499 11.3613 16.5423 10.8366 17.4209 10.833H17.5C17.96 10.8328 18.333 10.4601 18.333 10C18.333 9.53991 17.96 9.16724 17.5 9.16699H17.3545C16.4743 9.16346 15.6807 8.63711 15.334 7.82812C15.3038 7.75779 15.2833 7.68393 15.2734 7.6084C14.9973 6.82086 15.1888 5.93765 15.7793 5.33398L15.7852 5.32715L15.8359 5.27734C15.9924 5.12104 16.0801 4.90866 16.0801 4.6875C16.0801 4.46634 15.9924 4.25396 15.8359 4.09766H15.835C15.6787 3.94117 15.4663 3.85254 15.2451 3.85254C15.024 3.85261 14.8115 3.94124 14.6553 4.09766L14.5986 4.1543C13.9543 4.78431 12.9919 4.95974 12.167 4.59766C11.3604 4.24998 10.8365 3.45678 10.833 2.57812V2.5C10.833 2.03991 10.46 1.66724 10 1.66699ZM10 6.66699C11.8407 6.66724 13.333 8.1592 13.333 10C13.333 11.8408 11.8407 13.3328 10 13.333C8.15905 13.333 6.66602 11.8409 6.66602 10C6.66602 8.15905 8.15905 6.66699 10 6.66699ZM10 8.33301C9.07953 8.33301 8.33301 9.07953 8.33301 10C8.33301 10.9205 9.07953 11.667 10 11.667C10.9203 11.6667 11.666 10.9203 11.666 10C11.666 9.07968 10.9203 8.33325 10 8.33301Z" fill="black"/>
</svg>
