<svg width="20" height="20" viewBox="0 0 20 20" fill="none" xmlns="http://www.w3.org/2000/svg">
<path d="M9.89795 0.839478C9.99912 0.82703 10.1022 0.834189 10.2017 0.859009L16.8687 2.52502C17.0077 2.55981 17.1308 2.62904 17.231 2.72131C17.3312 2.81364 17.4083 2.92945 17.4536 3.0592C17.4687 3.1024 17.48 3.14715 17.4878 3.19299C17.4956 3.23887 17.5005 3.28583 17.5005 3.33362V10.0006C17.5005 10.0904 17.4983 10.1796 17.4946 10.2682C17.4654 10.977 17.3213 11.6494 17.0952 12.2819C17.0669 12.361 17.0371 12.4394 17.0063 12.5172C16.9449 12.6727 16.8788 12.8258 16.8081 12.9762C16.2416 14.181 15.3951 15.2214 14.5298 16.0699C14.3137 16.2818 14.0967 16.482 13.8823 16.6696C13.4444 17.0527 13.007 17.3937 12.5981 17.6901C12.1896 17.9862 11.8093 18.2377 11.4839 18.441C11.1575 18.645 10.8835 18.8027 10.6899 18.9098C10.5933 18.9633 10.5163 19.0045 10.4624 19.0328C10.4356 19.0469 10.414 19.0583 10.3989 19.066L10.3765 19.0778L10.3735 19.0787H10.3726C10.2845 19.1228 10.1906 19.1508 10.0952 19.1617C10.032 19.169 9.96803 19.169 9.90479 19.1617C9.80938 19.1508 9.71552 19.1228 9.62744 19.0787H9.62646L9.60107 19.066C9.58605 19.0583 9.56442 19.0469 9.5376 19.0328C9.48369 19.0045 9.40669 18.9633 9.31006 18.9098C9.11654 18.8027 8.84253 18.645 8.51611 18.441C8.19072 18.2377 7.81037 17.9862 7.40186 17.6901C6.99313 17.3938 6.55641 17.0525 6.11865 16.6696C5.90423 16.4819 5.68635 16.2819 5.47021 16.0699C4.60489 15.2214 3.75842 14.181 3.19189 12.9762C3.12118 12.8258 3.05514 12.6727 2.99365 12.5172C2.96286 12.4394 2.93307 12.361 2.90479 12.2819C2.67866 11.6494 2.53464 10.977 2.50537 10.2682C2.50171 10.1796 2.5005 10.0904 2.50049 10.0006V3.33362C2.50049 3.28583 2.50436 3.23886 2.51221 3.19299C2.52003 3.14715 2.53131 3.10239 2.54639 3.0592C2.59174 2.92945 2.66882 2.81364 2.76904 2.72131C2.83574 2.65984 2.9124 2.60837 2.99756 2.57092C3.04022 2.55216 3.08494 2.53664 3.13135 2.52502L9.79834 0.859009L9.89795 0.839478ZM4.1665 3.98401V9.99963C4.1665 12.1275 5.59857 13.9999 7.21533 15.4147C8.00604 16.1065 8.80122 16.6538 9.3999 17.028C9.63544 17.1752 9.84098 17.293 10.0005 17.3834C10.1599 17.293 10.3648 17.175 10.6001 17.028C11.1988 16.6538 11.9939 16.1065 12.7847 15.4147C14.4014 13.9999 15.8335 12.1275 15.8335 9.99963V3.98401L10.0005 2.526L4.1665 3.98401ZM12.062 7.84534C12.3874 7.51991 12.9153 7.51994 13.2407 7.84534C13.5661 8.17078 13.5661 8.69863 13.2407 9.02405L9.70557 12.5592C9.38014 12.8845 8.85227 12.8846 8.52686 12.5592L6.7583 10.7916C6.43327 10.4663 6.4333 9.93828 6.7583 9.61292C7.08374 9.28748 7.61255 9.28748 7.93799 9.61292L9.1167 10.7916L12.062 7.84534Z" fill="currentColor"/>
</svg>
