<svg xmlns="http://www.w3.org/2000/svg" width="20" height="20" viewBox="0 0 20 20" fill="none">
<path d="M14.1665 0.833008C16.4677 0.833008 18.3335 2.69881 18.3335 5V15C18.3335 17.3012 16.4677 19.167 14.1665 19.167H5.83347C3.53228 19.167 1.66647 17.3012 1.66647 15V5C1.66647 2.69881 3.53228 0.833008 5.83347 0.833008H14.1665ZM5.83347 2.5C4.45275 2.5 3.33347 3.61929 3.33347 5V15C3.33347 16.3375 4.38368 17.4301 5.70456 17.4971L5.83347 17.5V2.5ZM7.50046 17.5H14.1665C15.5472 17.5 16.6665 16.3807 16.6665 15V5C16.6665 3.61929 15.5472 2.5 14.1665 2.5H7.50046V17.5ZM12.7446 6.91113C13.07 6.58581 13.5969 6.58575 13.9223 6.91113C14.2477 7.23654 14.2476 7.76344 13.9223 8.08887L12.0122 10L13.9223 11.9111C14.2477 12.2365 14.2476 12.7634 13.9223 13.0889C13.5969 13.4143 13.07 13.4142 12.7446 13.0889L10.2446 10.5889C9.91918 10.2634 9.91917 9.73657 10.2446 9.41113L12.7446 6.91113Z" fill="currentColor"/>
</svg>