<svg width="20" height="20" viewBox="0 0 20 20" fill="none" xmlns="http://www.w3.org/2000/svg">
<path d="M11.6665 0.833618C13.0472 0.833618 14.1665 1.95291 14.1665 3.33362V4.16663H17.5005C17.9604 4.16687 18.3333 4.5397 18.3335 4.99963C18.3335 5.45972 17.9605 5.83337 17.5005 5.83362H16.6665V16.6666C16.6665 18.0473 15.5472 19.1666 14.1665 19.1666H5.8335C4.45278 19.1666 3.3335 18.0473 3.3335 16.6666V5.83362H2.50049C2.04025 5.83362 1.6665 5.45987 1.6665 4.99963C1.66668 4.53955 2.04036 4.16663 2.50049 4.16663H5.8335V3.33362C5.8335 1.95291 6.95278 0.833618 8.3335 0.833618H11.6665ZM5.00049 5.83362V16.6666C5.00049 17.1269 5.37326 17.4996 5.8335 17.4996H14.1665C14.6267 17.4996 15.0005 17.1269 15.0005 16.6666V5.83362H5.00049ZM8.3335 2.49963C7.87326 2.49963 7.50049 2.87338 7.50049 3.33362V4.16663H12.5005V3.33362C12.5005 2.87338 12.1267 2.49963 11.6665 2.49963H8.3335Z" fill="currentColor"/>
</svg>
