<svg width="20" height="20" viewBox="0 0 20 20" fill="none" xmlns="http://www.w3.org/2000/svg">
<path d="M18.5771 0.244385C18.9026 -0.0810264 19.4304 -0.0810264 19.7559 0.244385C20.0812 0.56975 20.081 1.09668 19.7559 1.42212L14.4092 6.7688C15.0302 7.01543 15.6697 7.42097 16.2969 8.0481C16.4527 8.20427 16.541 8.41633 16.541 8.63696C16.5408 8.85773 16.453 9.0697 16.2969 9.22583L13.3506 12.1721L16.7842 15.6057C17.1089 15.9311 17.109 16.4582 16.7842 16.7834C16.4589 17.1087 15.9309 17.1085 15.6055 16.7834L12.1719 13.3508L9.22656 16.2971C8.90134 16.6223 8.37333 16.6219 8.04785 16.2971C7.42059 15.6698 7.01604 15.0287 6.77051 14.4065L1.42285 19.7561C1.09743 20.0815 0.569582 20.0815 0.244141 19.7561C-0.081277 19.4307 -0.0812899 18.9028 0.244141 18.5774L18.5771 0.244385ZM8.13379 13.0432C8.17923 13.4801 8.33488 13.9672 8.6875 14.4788L14.4795 8.68677C13.9683 8.33314 13.4831 8.17659 13.0479 8.13013L8.13379 13.0432ZM4.51172 2.15454C5.16235 1.50414 6.2173 1.50452 6.86816 2.15454L8.39258 3.67798C8.70474 3.99035 8.88069 4.41508 8.88086 4.85669V5.34497L9.41992 5.88403C9.74492 6.20942 9.74402 6.73647 9.41895 7.06177C9.09345 7.38705 8.56555 7.38728 8.24023 7.06177L7.45898 6.27954C7.30293 6.12338 7.21495 5.91047 7.21484 5.6897V4.85669L5.69043 3.33325L3.33301 5.6897L4.85645 7.21411H5.69043C5.91102 7.21429 6.12321 7.30237 6.2793 7.45825L7.0625 8.24048C7.38794 8.56579 7.38772 9.09371 7.0625 9.41919C6.73722 9.74447 6.20925 9.74523 5.88379 9.42017L5.34473 8.8811H4.85645C4.41499 8.88087 3.99102 8.70484 3.67871 8.39282L2.15527 6.86841C1.50476 6.2175 1.50452 5.16272 2.15527 4.51196L4.51172 2.15454Z" fill="currentColor"/>
</svg>
