<svg xmlns="http://www.w3.org/2000/svg" width="32" height="32" viewBox="0 0 32 32" fill="none">
    <path d="M20.4102 10.4111C20.7356 10.0857 21.2634 10.0857 21.5889 10.4111C21.9138 10.7365 21.9138 11.2635 21.5889 11.5889L17.1777 16L21.5889 20.4111C21.9138 20.7365 21.9138 21.2635 21.5889 21.5889C21.2634 21.9143 20.7356 21.9143 20.4102 21.5889L15.999 17.1787L11.5889 21.5889C11.2634 21.9143 10.7356 21.9143 10.4102 21.5889C10.0848 21.2635 10.0849 20.7366 10.4102 20.4111L14.8203 16L10.4102 11.5889C10.0848 11.2635 10.0849 10.7366 10.4102 10.4111C10.7356 10.0857 11.2634 10.0857 11.5889 10.4111L15.999 14.8213L20.4102 10.4111Z" fill="currentColor"/>
</svg>